<svg data-v-423bf9ae="" xmlns="http://www.w3.org/2000/svg" viewBox="0 0 370 90" class="iconLeftSlogan"><!----><!----><!----><g data-v-423bf9ae="" id="1a1334ce-f801-493f-b613-829aa3111d2a" fill="black" transform="matrix(6.116208284037474,0,0,6.116208284037474,108.47094629717162,-11.743121325655927)"><path d="M3.82 1.93L3.82 1.93L3.82 1.93Q5.87 1.93 6.41 3.21L6.41 3.21L6.41 3.21Q6.56 3.53 6.56 3.63L6.56 3.63L5.69 3.63L5.69 3.89L6.62 3.89L6.62 3.88L6.62 3.88Q6.62 3.81 6.56 3.63L6.56 3.63L8.13 3.63L8.13 3.89L6.64 3.89L6.64 3.91L6.64 3.91Q6.75 4.46 6.80 5.09L6.80 5.09L6.80 5.09Q6.80 5.13 5.00 5.22L5.00 5.22L5.00 5.21L5.00 5.21Q5.00 3.58 3.88 3.58L3.88 3.58L3.69 3.58L3.69 3.58Q2.85 3.58 2.67 4.29L2.67 4.29L2.67 4.29Q2.52 4.89 2.52 5.87L2.52 5.87L2.52 7.20L2.50 7.40L1.88 7.40L1.88 7.71L2.50 7.71L2.50 10.08L5.14 10.08L5.14 7.62L6.65 7.62L6.65 10.08L5.81 10.08L5.81 11.60L4.05 11.60L4.05 11.73L2.69 11.73L2.69 11.60L1.30 11.60L1.30 10.84L2.22 10.84L2.22 10.51L0.84 10.51L0.84 9.39L0.25 9.39L0.25 8.01L0.56 8.01L0.56 8.01Q0.54 7.15 0.54 6.66L0.54 6.66L0.54 6.66Q0.54 4.42 0.76 3.84L0.76 3.84L0.76 3.84Q0.96 3.17 1.42 2.69L1.42 2.69L1.42 2.69Q2.23 1.93 3.82 1.93ZM2.63 9.59L2.63 9.59L2.71 9.59L2.71 9.93L2.91 9.93L2.91 10.04L2.63 10.04L2.63 10.04Q2.60 10.04 2.60 10.00L2.60 10.00L2.60 9.63L2.60 9.63Q2.60 9.59 2.63 9.59ZM4.69 9.60L4.69 9.59L4.79 9.59L4.79 9.59Q4.87 9.66 4.87 9.72L4.87 9.72L4.87 9.72Q4.89 9.72 4.99 9.59L4.99 9.59L5.07 9.59L5.07 9.63L5.07 9.63Q4.96 9.78 4.96 9.84L4.96 9.84L4.96 9.84Q4.98 9.84 5.09 10.01L5.09 10.01L5.09 10.04L4.99 10.04L4.87 9.91L4.87 9.91Q4.81 10.02 4.78 10.04L4.78 10.04L4.68 10.04L4.68 10.04Q4.71 9.97 4.83 9.80L4.83 9.80L4.69 9.60ZM6.04 10.19L6.04 10.19L6.04 10.19Q6.21 10.23 6.21 10.28L6.21 10.28L6.21 10.35L6.14 10.35L6.08 10.28L6.01 10.28L6.01 10.28Q5.97 10.29 5.97 10.32L5.97 10.32L5.97 10.35L5.97 10.35Q6.23 10.40 6.23 10.46L6.23 10.46L6.23 10.51L6.23 10.51Q6.23 10.64 6.08 10.64L6.08 10.64L6.01 10.64L6.01 10.64Q5.92 10.64 5.87 10.55L5.87 10.55L5.87 10.48L5.96 10.48L5.96 10.48Q5.96 10.56 6.06 10.56L6.06 10.56L6.08 10.56L6.08 10.56Q6.10 10.56 6.13 10.51L6.13 10.51L6.13 10.51Q6.13 10.49 5.89 10.40L5.89 10.40L5.88 10.36L5.88 10.28L5.88 10.28Q5.88 10.23 6.04 10.19ZM8.64 7.57L10.33 1.94L11.98 1.94L11.98 1.94Q12.01 2.08 13.58 7.29L13.58 7.29L13.88 7.29L13.88 10.51L13.20 10.51L13.20 10.76L13.88 10.76L13.88 11.45L12.06 11.45L12.06 9.47L9.83 9.47L9.83 10.31L8.93 10.31L8.93 11.73L7.27 11.73L7.27 11.63L7.40 11.63L7.40 10.31L8.08 10.31L8.08 7.57L8.64 7.57ZM11.14 4.70L11.10 4.70L11.10 4.72L11.10 4.72Q10.89 5.88 10.28 8.39L10.28 8.39L11.81 8.39L11.81 7.29L11.68 7.29L11.68 7.29Q11.14 4.91 11.14 4.70L11.14 4.70ZM8.18 7.08L8.18 7.08L8.33 7.08L8.33 7.08Q8.33 7.14 8.39 7.18L8.39 7.18L8.39 7.18Q8.40 7.12 8.46 7.08L8.46 7.08L8.58 7.08L8.58 7.09L8.58 7.09Q8.46 7.25 8.46 7.27L8.46 7.27L8.46 7.27Q8.49 7.33 8.59 7.47L8.59 7.47L8.59 7.51L8.53 7.51L8.53 7.51Q8.44 7.51 8.39 7.37L8.39 7.37L8.39 7.37Q8.29 7.51 8.28 7.51L8.28 7.51L8.20 7.51L8.20 7.51Q8.16 7.51 8.16 7.47L8.16 7.47L8.16 7.47Q8.18 7.47 8.30 7.29L8.30 7.29L8.30 7.26L8.30 7.26Q8.18 7.09 8.18 7.08ZM6.79 7.57L6.79 7.27L8.08 7.27L8.08 7.57L6.79 7.57ZM13.92 7.59L13.92 7.49L14.27 7.49L14.27 7.57L14.06 7.83L14.26 7.83L14.26 7.83Q14.29 7.84 14.29 7.87L14.29 7.87L14.29 7.90L14.29 7.90Q14.29 7.94 14.26 7.94L14.26 7.94L13.91 7.94L13.91 7.85L14.12 7.59L13.92 7.59ZM11.40 8.36L11.40 7.92L11.50 7.92L11.50 8.08L11.68 7.92L11.78 7.92L11.78 7.94L11.63 8.10L11.63 8.10Q11.80 8.33 11.80 8.36L11.80 8.36L11.70 8.36L11.70 8.36Q11.68 8.36 11.55 8.18L11.55 8.18L11.55 8.18Q11.53 8.18 11.50 8.23L11.50 8.23L11.50 8.36L11.40 8.36ZM13.96 8.07L13.96 8.07L14.16 8.07L14.16 8.07Q14.31 8.09 14.31 8.22L14.31 8.22L14.26 8.30L14.26 8.30Q14.31 8.35 14.31 8.50L14.31 8.50L14.31 8.51L14.21 8.51L14.21 8.51Q14.19 8.35 14.16 8.35L14.16 8.35L14.04 8.35L14.04 8.51L13.96 8.51L13.96 8.51Q13.92 8.51 13.92 8.48L13.92 8.48L13.92 8.10L13.92 8.10Q13.93 8.07 13.96 8.07ZM14.19 8.16L14.04 8.16L14.04 8.26L14.16 8.26L14.16 8.26Q14.19 8.26 14.19 8.23L14.19 8.23L14.19 8.16ZM13.92 8.64L13.92 8.64L14.24 8.64L14.24 8.64Q14.27 8.65 14.27 8.67L14.27 8.67L14.27 8.71L14.27 8.71Q14.27 8.74 14.24 8.74L14.24 8.74L14.14 8.74L14.14 9.09L14.03 9.09L14.03 8.74L13.92 8.74L13.92 8.74Q13.89 8.74 13.89 8.71L13.89 8.71L13.89 8.67L13.89 8.67Q13.90 8.64 13.92 8.64ZM14.03 9.67L13.89 9.22L13.97 9.22L13.97 9.22Q14.02 9.22 14.08 9.50L14.08 9.50L14.09 9.50L14.09 9.50Q14.17 9.26 14.17 9.22L14.17 9.22L14.29 9.22L14.29 9.22Q14.16 9.67 14.12 9.67L14.12 9.67L14.03 9.67ZM9.91 9.75L10.33 9.60L10.33 9.69L10.33 9.69Q10.33 9.71 10.06 9.80L10.06 9.80L10.06 9.82L10.33 9.91L10.33 10.01L9.91 9.86L9.91 9.75ZM7.77 9.80L7.77 9.80L7.82 9.80L7.82 9.80Q7.88 9.80 8.00 10.25L8.00 10.25L7.90 10.25L7.90 10.25Q7.90 10.23 7.87 10.14L7.87 10.14L7.72 10.14L7.72 10.14Q7.70 10.25 7.67 10.25L7.67 10.25L7.59 10.25L7.59 10.25Q7.73 9.80 7.77 9.80ZM14.11 9.80L14.11 9.80L14.16 9.80L14.16 9.80Q14.32 9.80 14.36 10.03L14.36 10.03L14.36 10.03Q14.31 10.26 14.14 10.26L14.14 10.26L14.14 10.26Q13.91 10.22 13.91 10.03L13.91 10.03L13.91 10.03Q13.95 9.80 14.11 9.80ZM14.03 10.01L14.03 10.01L14.03 10.03L14.03 10.03Q14.03 10.12 14.11 10.17L14.11 10.17L14.16 10.17L14.16 10.17Q14.24 10.12 14.24 10.03L14.24 10.03L14.24 10.01L14.24 10.01Q14.23 9.88 14.12 9.88L14.12 9.88L14.12 9.88Q14.03 9.92 14.03 10.01ZM7.80 9.95L7.79 9.95L7.79 9.95Q7.75 10.06 7.75 10.06L7.75 10.06L7.83 10.06L7.80 9.95ZM12.06 11.73L12.06 11.57L14.26 11.57L14.26 11.73L12.06 11.73ZM14.58 7.49L14.58 1.96L17.93 1.96L17.93 1.96Q19.61 1.96 20.10 3.14L20.10 3.14L20.10 3.14Q20.32 3.75 20.32 4.53L20.32 4.53L20.32 4.94L20.32 4.94Q20.32 6.36 19.69 7.11L19.69 7.11L18.98 7.11L18.98 7.47L20.07 7.47L20.07 9.81L19.43 9.81L19.43 10.17L20.40 10.17L20.40 11.55L18.36 11.55L18.36 9.34L17.58 9.34L17.58 7.92L16.21 7.92L16.21 10.34L16.50 10.34L16.50 11.73L14.62 11.73L14.62 11.73Q14.58 11.73 14.58 11.70L14.58 11.70L14.58 7.77L15.42 7.77L15.42 7.49L14.58 7.49ZM17.31 3.55L16.50 3.55L16.50 6.31L16.97 6.31L16.97 6.31Q18.01 6.31 18.18 6.11L18.18 6.11L18.18 6.11Q18.35 6.00 18.44 5.67L18.44 5.67L19.17 5.67L19.17 5.32L18.51 5.32L18.51 5.35L18.51 5.35Q18.46 5.67 18.43 5.67L18.43 5.67L17.49 5.67L17.49 5.32L18.48 5.32L18.48 5.32Q18.51 5.32 18.51 5.29L18.51 5.29L18.51 5.29Q18.53 4.87 18.53 4.81L18.53 4.81L18.53 4.81Q18.53 3.90 18.21 3.69L18.21 3.69L18.21 3.69Q17.96 3.55 17.31 3.55L17.31 3.55ZM16.39 8.16L16.29 8.00L16.37 8.00L16.37 8.00Q16.44 8.03 16.44 8.10L16.44 8.10L16.44 8.10Q16.47 8.10 16.50 8.00L16.50 8.00L16.60 8.00L16.60 8.02L16.50 8.16L16.50 8.16Q16.50 8.18 16.62 8.35L16.62 8.35L16.62 8.36L16.54 8.36L16.54 8.36Q16.52 8.36 16.44 8.24L16.44 8.24L16.44 8.24Q16.39 8.35 16.36 8.36L16.36 8.36L16.28 8.36L16.28 8.36Q16.39 8.19 16.39 8.16L16.39 8.16ZM16.30 8.56L16.30 8.49L16.60 8.49L16.60 8.54L16.42 8.77L16.60 8.77L16.60 8.85L16.29 8.85L16.29 8.79L16.47 8.56L16.30 8.56ZM23.76 1.93L23.76 1.93L23.76 1.93Q25.59 1.93 26.15 3.21L26.15 3.21L26.15 3.21Q26.48 3.83 26.48 5.61L26.48 5.61L26.48 5.65L25.86 5.65L25.86 5.93L26.48 5.93L26.48 8.98L26.07 8.98L26.07 10.09L25.25 10.09L25.25 11.16L25.61 11.16L25.61 11.73L24.04 11.73L24.04 11.11L23.00 11.11L23.00 10.09L21.85 10.09L21.85 8.98L21.29 8.98L21.29 8.12L21.72 8.12L21.72 7.67L21.29 7.67L21.29 8.12L20.24 8.12L20.24 7.67L21.03 7.67L21.03 7.67Q21.02 6.64 21.02 6.08L21.02 6.08L21.02 5.36L21.02 5.36Q21.02 3.36 21.70 2.67L21.70 2.67L21.70 2.67Q22.33 1.93 23.76 1.93ZM22.73 4.85L22.73 4.85L22.74 4.85L22.73 4.88L22.73 5.65L22.09 5.65L22.09 5.93L22.73 5.93L22.73 5.93Q22.72 7.76 22.72 8.69L22.72 8.69L22.72 8.98L23.35 8.98L23.35 8.52L24.79 8.52L24.79 8.50L24.79 8.50Q24.79 7.64 24.77 6.10L24.77 6.10L24.77 6.10Q24.77 6.04 24.79 5.77L24.79 5.77L24.79 5.77Q24.79 4.10 24.59 3.72L24.59 3.72L24.59 3.72Q24.38 3.35 23.85 3.35L23.85 3.35L23.64 3.35L23.64 3.35Q23.00 3.35 22.85 3.92L22.85 3.92L22.85 3.92Q22.78 4.20 22.73 4.85ZM26.48 5.93L26.48 5.65L27.50 5.65L27.50 5.93L26.48 5.93ZM26.56 6.31L26.56 5.99L26.76 5.99L26.76 5.99Q26.79 5.99 26.79 6.02L26.79 6.02L26.79 6.06L26.64 6.06L26.64 6.11L26.74 6.11L26.74 6.11Q26.76 6.12 26.76 6.14L26.76 6.14L26.76 6.18L26.64 6.18L26.64 6.31L26.56 6.31ZM26.56 6.73L26.56 6.41L26.68 6.41L26.68 6.41Q26.79 6.41 26.82 6.48L26.82 6.48L26.82 6.54L26.79 6.58L26.79 6.58Q26.82 6.62 26.84 6.73L26.84 6.73L26.78 6.73L26.78 6.73Q26.76 6.73 26.72 6.62L26.72 6.62L26.72 6.62Q26.70 6.61 26.67 6.61L26.67 6.61L26.64 6.61L26.64 6.73L26.56 6.73ZM26.72 6.48L26.64 6.48L26.64 6.55L26.72 6.55L26.72 6.55Q26.75 6.55 26.75 6.52L26.75 6.52L26.75 6.51L26.75 6.51Q26.75 6.48 26.72 6.48L26.72 6.48ZM26.67 6.84L26.67 6.84L26.72 6.84L26.84 7.16L26.78 7.16L26.78 7.16Q26.75 7.16 26.74 7.09L26.74 7.09L26.63 7.09L26.61 7.16L26.54 7.16L26.54 7.14L26.54 7.14Q26.63 6.84 26.67 6.84ZM26.65 7.03L26.65 7.03L26.71 7.03L26.71 7.02L26.69 6.95L26.69 6.95Q26.67 6.95 26.65 7.03ZM24.57 7.70L24.57 7.70L24.57 7.70Q24.66 7.72 24.68 7.78L24.68 7.78L24.68 7.81L24.63 7.81L24.57 7.77L24.54 7.77L24.54 7.77Q24.51 7.77 24.51 7.79L24.51 7.79L24.51 7.79Q24.51 7.81 24.67 7.87L24.67 7.87L24.67 7.87Q24.70 7.92 24.70 7.94L24.70 7.94L24.70 7.94Q24.66 8.04 24.55 8.04L24.55 8.04L24.55 8.04Q24.49 8.04 24.43 7.95L24.43 7.95L24.43 7.91L24.50 7.91L24.50 7.91Q24.51 7.96 24.54 7.96L24.54 7.96L24.62 7.96L24.62 7.94L24.62 7.94Q24.62 7.92 24.46 7.85L24.46 7.85L24.46 7.85Q24.45 7.83 24.45 7.79L24.45 7.79L24.45 7.77L24.45 7.77Q24.45 7.73 24.57 7.70ZM24.60 8.12L24.60 8.12L24.60 8.12Q24.73 8.12 24.74 8.29L24.74 8.29L24.74 8.32L24.71 8.42L24.71 8.42Q24.74 8.42 24.74 8.45L24.74 8.45L24.74 8.45Q24.71 8.45 24.71 8.48L24.71 8.48L24.66 8.45L24.59 8.46L24.59 8.46Q24.43 8.44 24.43 8.29L24.43 8.29L24.43 8.29Q24.47 8.12 24.60 8.12ZM24.51 8.29L24.51 8.29L24.51 8.29Q24.51 8.37 24.57 8.39L24.57 8.39L24.60 8.39L24.59 8.36L24.59 8.36Q24.59 8.33 24.62 8.33L24.62 8.33L24.63 8.33L24.66 8.35L24.66 8.35Q24.66 8.33 24.67 8.31L24.67 8.31L24.67 8.31Q24.67 8.20 24.59 8.19L24.59 8.19L24.59 8.19Q24.51 8.21 24.51 8.29ZM27.53 6.32L27.53 1.93L29.42 1.93L29.42 7.11L28.53 7.11L28.53 7.39L29.42 7.39L29.42 8.35L29.42 8.35Q29.42 9.68 29.89 9.91L29.89 9.91L29.89 9.91Q30.13 10.05 30.48 10.05L30.48 10.05L31.06 10.05L31.06 8.34L31.58 8.34L31.58 1.93L33.46 1.93L33.46 7.95L32.78 7.95L32.78 8.39L33.46 8.39L33.46 8.39Q33.44 8.61 33.44 8.71L33.44 8.71L33.44 10.63L32.46 10.63L32.46 11.73L28.08 11.73L28.08 10.38L27.67 10.38L27.67 6.32L27.53 6.32ZM29.42 7.39L29.42 7.11L30.48 7.11L30.48 7.39L29.42 7.39ZM32.55 10.71L32.55 10.71L32.61 10.71L32.61 10.71Q32.66 10.71 32.70 10.94L32.70 10.94L32.71 10.94L32.71 10.94Q32.78 10.74 32.78 10.71L32.78 10.71L32.87 10.71L32.87 10.71Q32.77 11.09 32.73 11.09L32.73 11.09L32.68 11.09L32.68 11.09Q32.65 11.09 32.55 10.71ZM34.36 1.93L34.36 1.93L36.20 1.93L36.20 1.93Q36.23 1.94 36.23 1.97L36.23 1.97L36.23 6.73L36.23 6.73Q36.23 6.76 36.20 6.76L36.20 6.76L35.98 6.76L35.98 11.70L35.98 11.70Q35.98 11.73 35.95 11.73L35.95 11.73L34.36 11.73L34.36 11.73Q34.32 11.73 34.32 11.70L34.32 11.70L34.32 6.64L33.83 6.64L33.83 6.64Q33.80 6.64 33.80 6.61L33.80 6.61L33.80 6.40L33.80 6.40Q33.80 6.36 33.83 6.36L33.83 6.36L34.32 6.36L34.32 1.97L34.32 1.97Q34.33 1.93 34.36 1.93ZM35.28 6.36L34.34 6.36L34.34 6.64L35.28 6.64L35.28 6.36ZM36.61 3.56L36.61 1.92L41.78 1.92L41.78 3.17L41.78 3.17Q41.78 3.21 40.99 4.88L40.99 4.88L42.74 4.88L42.74 5.31L40.80 5.31L40.80 5.31Q40.78 5.31 40.28 6.36L40.28 6.36L40.28 6.36Q40.26 6.44 39.76 7.47L39.76 7.47L40.04 7.47L40.04 7.47Q39.52 8.63 39.45 8.71L39.45 8.71L38.61 8.71L38.61 9.09L39.29 9.09L38.83 10.08L40.63 10.08L40.63 10.59L42.25 10.59L42.25 11.70L42.25 11.70Q42.25 11.73 42.21 11.73L42.21 11.73L39.48 11.73L39.48 11.57L36.61 11.57L36.61 10.62L37.02 10.62L37.02 9.57L37.02 9.57Q37.14 9.27 38.01 7.47L38.01 7.47L37.73 7.47L37.73 7.45L39.60 3.56L36.61 3.56ZM40.97 4.88L40.07 4.88L40.07 5.31L40.76 5.31L40.76 5.31Q40.79 5.31 40.97 4.88L40.97 4.88Z"></path></g><!----><g data-v-423bf9ae="" id="a2434844-453b-44a8-9404-288ecddb3c74" transform="matrix(2.8125,0,0,2.8125,0,0)" stroke="none" fill="black"><path d="M0 16l16 16 16-16L16 0 0 16zm16 13.172L2.828 16 16 2.828 29.172 16 16 29.172z"></path><path d="M14.751 9.991v4.76h-2.262v-4.76H9.991v12.018h2.498v-4.76h2.262v4.76h2.498v-4.76h2.262v4.76h2.498V9.991h-2.498v4.76h-2.262v-4.76z"></path></g><!----><g data-v-423bf9ae="" id="b9877ee3-2a61-4672-9ef0-a98b21eef13d" fill="black" transform="matrix(Infinity,0,0,Infinity,0,0)"><path d=""></path></g></svg>